<?xml version="1.0" encoding="utf-8"?>
<!-- Generator: Adobe Illustrator 16.0.4, SVG Export Plug-In . SVG Version: 6.00 Build 0)  -->
<!DOCTYPE svg PUBLIC "-//W3C//DTD SVG 1.1//EN" "http://www.w3.org/Graphics/SVG/1.1/DTD/svg11.dtd">
<svg version="1.1" id="Layer_1" xmlns="http://www.w3.org/2000/svg" xmlns:xlink="http://www.w3.org/1999/xlink" x="0px" y="0px"
	 width="25px" height="24px" viewBox="0 0 25 24" enable-background="new 0 0 25 24" xml:space="preserve">
<g>
	<g>
		<path fill="#FAE602" d="M15.524,21.892c0.525,0.916,1.539,1.17,2.348,0.708c0.024-0.014,0.05-0.031,0.074-0.048
			c0.027-0.011,0.052-0.026,0.079-0.041c0.804-0.462,1.095-1.467,0.571-2.38c-0.154-0.272-0.408-0.545-0.706-0.772l-3.625-3.23
			l-0.01-0.021l0.003,0.013l-0.008-0.008l0.01,0.019l0.958,4.762C15.261,21.265,15.371,21.62,15.524,21.892"/>
		<path fill="#C0E416" d="M9.478,21.892c-0.525,0.916-1.54,1.17-2.348,0.708c-0.024-0.014-0.048-0.031-0.074-0.048
			c-0.025-0.011-0.052-0.026-0.077-0.041c-0.806-0.462-1.098-1.467-0.572-2.38c0.152-0.272,0.408-0.545,0.707-0.772l3.623-3.23
			l0.01-0.021l-0.001,0.013l0.006-0.008l-0.009,0.019l-0.956,4.762C9.742,21.265,9.633,21.62,9.478,21.892"/>
		<path fill="#FF9C10" d="M21.791,15.91c1.038,0.185,1.889-0.427,2.051-1.343c0.006-0.029,0.01-0.059,0.01-0.086
			c0.01-0.029,0.015-0.057,0.023-0.087c0.162-0.913-0.419-1.784-1.459-1.971c-0.306-0.055-0.677-0.036-1.044,0.047l-4.805,0.696
			l-0.023-0.002l0.012,0.006h-0.012l0.022,0.005l4.26,2.326C21.142,15.708,21.485,15.854,21.791,15.91"/>
		<path fill="#F44C63" d="M14.272,2.789c0.002-1.057-0.749-1.786-1.678-1.788c-0.029-0.001-0.059,0-0.087,0.003
			C12.477,1.001,12.448,1,12.417,1c-0.926-0.004-1.684,0.723-1.686,1.779c-0.001,0.309,0.083,0.672,0.227,1.02l1.523,4.607v0.022
			l0.003-0.009l0.001,0.009V8.406l1.552-4.598C14.186,3.462,14.271,3.098,14.272,2.789"/>
		<path fill="#FF7236" d="M21.061,7.632c0.811-0.676,0.886-1.719,0.292-2.434c-0.019-0.021-0.038-0.043-0.06-0.064
			c-0.015-0.024-0.034-0.05-0.053-0.068c-0.593-0.715-1.636-0.828-2.445-0.151c-0.239,0.199-0.463,0.498-0.637,0.829l-2.554,4.129
			l-0.017,0.016l0.01-0.005l-0.006,0.009l0.018-0.016l4.521-1.768C20.491,8,20.824,7.832,21.061,7.632"/>
		<path fill="#34CBB5" d="M6.232,4.922c-0.806-0.683-1.847-0.576-2.45,0.136C3.766,5.081,3.748,5.103,3.731,5.126
			C3.709,5.148,3.689,5.169,3.67,5.191c-0.598,0.71-0.529,1.751,0.278,2.435c0.237,0.201,0.569,0.369,0.927,0.48l4.511,1.797
			L9.403,9.92L9.396,9.911l0.011,0.005L9.39,9.902L6.862,5.756C6.693,5.421,6.469,5.12,6.232,4.922"/>
		<path fill="#92C702" d="M2.592,12.423c-1.04,0.179-1.628,1.045-1.468,1.963c0.003,0.028,0.01,0.057,0.018,0.085
			c0.001,0.028,0.004,0.058,0.01,0.088c0.158,0.914,1.003,1.533,2.043,1.354c0.306-0.055,0.651-0.201,0.966-0.403l4.275-2.298
			l0.023-0.002l-0.011-0.003L8.458,13.2l-0.021,0.006l-4.799-0.73C3.27,12.39,2.898,12.369,2.592,12.423"/>
	</g>
</g>
</svg>
