<?xml version="1.0" encoding="utf-8"?>
<!-- Generator: Adobe Illustrator 16.0.0, SVG Export Plug-In . SVG Version: 6.00 Build 0)  -->
<!DOCTYPE svg PUBLIC "-//W3C//DTD SVG 1.1//EN" "http://www.w3.org/Graphics/SVG/1.1/DTD/svg11.dtd">
<svg version="1.1" id="Layer_1" xmlns="http://www.w3.org/2000/svg" xmlns:xlink="http://www.w3.org/1999/xlink" x="0px" y="0px"
	 width="200px" height="50px" viewBox="0 0 200 50" enable-background="new 0 0 200 50" xml:space="preserve">
<g>
	<g>
		<path fill="#FAE602" d="M13.344,33.347c0.444,0.775,1.302,0.99,1.986,0.6c0.021-0.012,0.042-0.026,0.062-0.041
			c0.023-0.009,0.044-0.021,0.067-0.034c0.68-0.391,0.926-1.241,0.483-2.014c-0.13-0.23-0.345-0.461-0.597-0.653l-3.067-2.732
			l-0.008-0.019l0.003,0.011l-0.007-0.007l0.008,0.017l0.81,4.027C13.122,32.816,13.215,33.117,13.344,33.347"/>
		<path fill="#C0E416" d="M8.23,33.347c-0.445,0.775-1.303,0.99-1.987,0.6c-0.021-0.012-0.041-0.026-0.062-0.041
			c-0.021-0.009-0.044-0.021-0.065-0.034c-0.682-0.391-0.929-1.241-0.484-2.014c0.129-0.23,0.345-0.461,0.598-0.653l3.065-2.732
			l0.008-0.019l0,0.011l0.005-0.007l-0.008,0.017L8.49,32.501C8.453,32.816,8.361,33.117,8.23,33.347"/>
		<path fill="#FF9C10" d="M18.646,28.287c0.878,0.156,1.598-0.361,1.735-1.136c0.005-0.024,0.009-0.05,0.009-0.073
			c0.009-0.023,0.013-0.048,0.02-0.073c0.137-0.772-0.355-1.51-1.234-1.667c-0.259-0.046-0.572-0.03-0.883,0.04l-4.065,0.588
			l-0.02-0.001l0.01,0.006h-0.01l0.019,0.003l3.604,1.969C18.097,28.116,18.387,28.239,18.646,28.287"/>
		<path fill="#F44C63" d="M12.285,17.188c0.002-0.895-0.633-1.512-1.419-1.513c-0.025-0.001-0.05,0-0.074,0.003
			c-0.025-0.003-0.05-0.004-0.076-0.004c-0.784-0.003-1.424,0.611-1.426,1.505c-0.001,0.261,0.07,0.568,0.192,0.862l1.288,3.897
			v0.02l0.003-0.008l0.001,0.008v-0.02l1.313-3.89C12.212,17.757,12.285,17.448,12.285,17.188"/>
		<path fill="#FF7236" d="M18.029,21.284c0.686-0.571,0.75-1.454,0.247-2.059c-0.016-0.018-0.032-0.037-0.051-0.055
			c-0.013-0.02-0.028-0.042-0.044-0.058c-0.502-0.605-1.384-0.7-2.069-0.128c-0.202,0.169-0.392,0.421-0.539,0.701l-2.16,3.493
			l-0.015,0.014l0.009-0.004l-0.005,0.008l0.015-0.014l3.824-1.495C17.546,21.596,17.828,21.453,18.029,21.284"/>
		<path fill="#34CBB5" d="M5.484,18.992c-0.682-0.578-1.562-0.487-2.072,0.114c-0.014,0.02-0.029,0.038-0.043,0.059
			c-0.019,0.018-0.035,0.036-0.051,0.055c-0.506,0.601-0.448,1.481,0.235,2.06c0.2,0.17,0.481,0.312,0.784,0.406l3.816,1.521
			l0.014,0.014l-0.006-0.008l0.009,0.005l-0.015-0.012l-2.138-3.508C5.874,19.414,5.685,19.159,5.484,18.992"/>
		<path fill="#92C702" d="M2.405,25.337c-0.88,0.151-1.377,0.884-1.242,1.66c0.003,0.024,0.009,0.049,0.015,0.072
			c0.001,0.024,0.004,0.05,0.008,0.074c0.134,0.773,0.849,1.298,1.729,1.146c0.259-0.047,0.551-0.17,0.817-0.342l3.617-1.943
			l0.02-0.002l-0.01-0.003l0.008-0.004l-0.018,0.004l-4.06-0.618C2.978,25.309,2.663,25.292,2.405,25.337"/>
	</g>
	<g>
		<path fill="#2A2B2A" d="M31.197,18.646c3.364,0,5.155,2.493,5.155,5.579c0,0.307-0.071,0.986-0.071,0.986h-8.686
			c0.118,2.613,1.978,3.933,4.095,3.933c2.048,0,3.533-1.389,3.533-1.389l0.94,1.671c0,0-1.765,1.693-4.613,1.693
			c-3.743,0-6.31-2.705-6.31-6.237C25.24,21.093,27.807,18.646,31.197,18.646 M34.022,23.494c-0.072-2.049-1.343-3.037-2.874-3.037
			c-1.74,0-3.155,1.083-3.484,3.037H34.022z"/>
		<path fill="#2A2B2A" d="M37.504,18.927h2.424l2.896,8.052c0.235,0.658,0.376,1.622,0.401,1.622h0.046
			c0.023,0,0.189-0.964,0.424-1.622l2.896-8.052h2.399l-4.401,11.911h-2.636L37.504,18.927z"/>
		<path fill="#2A2B2A" d="M55.608,18.646c3.366,0,5.155,2.493,5.155,5.579c0,0.307-0.071,0.986-0.071,0.986h-8.686
			c0.118,2.613,1.977,3.933,4.095,3.933c2.049,0,3.532-1.389,3.532-1.389l0.94,1.671c0,0-1.765,1.693-4.613,1.693
			c-3.743,0-6.308-2.705-6.308-6.237C49.653,21.093,52.218,18.646,55.608,18.646 M58.432,23.494
			c-0.069-2.049-1.341-3.037-2.872-3.037c-1.742,0-3.154,1.083-3.482,3.037H58.432z"/>
		<path fill="#2A2B2A" d="M63.07,18.927h2.212v2.071c0,0.493-0.046,0.895-0.046,0.895h0.046c0.542-1.742,1.931-3.106,3.766-3.106
			c0.307,0,0.59,0.046,0.59,0.046v2.261c0,0-0.307-0.071-0.659-0.071c-1.458,0-2.802,1.037-3.344,2.802
			c-0.212,0.683-0.283,1.413-0.283,2.142v4.873H63.07V18.927z"/>
		<path fill="#2A2B2A" d="M71.661,33.309c0,0,0.659,0.495,1.389,0.495c0.917,0,1.694-0.659,2.143-1.742l0.588-1.364L70.79,18.927
			h2.565l2.991,7.791c0.235,0.613,0.447,1.436,0.447,1.436h0.048c0,0,0.187-0.8,0.399-1.412l2.896-7.814h2.471l-5.579,14.052
			c-0.729,1.837-2.189,2.803-3.86,2.803c-1.341,0-2.307-0.73-2.307-0.73L71.661,33.309z"/>
		<path fill="#2A2B2A" d="M88.211,18.646c2.754,0,3.671,1.883,3.671,1.883h0.046c0,0-0.046-0.353-0.046-0.802v-5.508h2.284v16.619
			H92v-1.129c0-0.473,0.023-0.802,0.023-0.802h-0.046c0,0-0.965,2.212-3.908,2.212c-3.225,0-5.25-2.542-5.25-6.237
			C82.819,21.093,85.057,18.646,88.211,18.646 M88.516,29.144c1.766,0,3.438-1.248,3.438-4.285c0-2.118-1.106-4.237-3.366-4.237
			c-1.883,0-3.438,1.555-3.438,4.261C85.149,27.472,86.539,29.144,88.516,29.144"/>
		<path fill="#2A2B2A" d="M103.958,23.399h0.518v-0.212c0-1.954-1.105-2.613-2.613-2.613c-1.834,0-3.318,1.154-3.318,1.154
			l-0.943-1.671c0,0,1.72-1.412,4.451-1.412c3.013,0,4.708,1.646,4.708,4.659v7.533h-2.117v-1.129c0-0.542,0.046-0.942,0.046-0.942
			h-0.046c0,0-0.966,2.353-3.815,2.353c-2.048,0-4.049-1.246-4.049-3.625C96.778,23.565,101.957,23.399,103.958,23.399
			 M101.321,29.283c1.932,0,3.178-2.023,3.178-3.789v-0.376h-0.587c-1.72,0-4.826,0.118-4.826,2.259
			C99.086,28.343,99.84,29.283,101.321,29.283"/>
		<path fill="#2A2B2A" d="M108.831,33.309c0,0,0.659,0.495,1.389,0.495c0.918,0,1.695-0.659,2.143-1.742l0.588-1.364l-4.989-11.771
			h2.564l2.989,7.791c0.236,0.613,0.449,1.436,0.449,1.436h0.046c0,0,0.188-0.8,0.4-1.412l2.895-7.814h2.473l-5.579,14.052
			c-0.729,1.837-2.188,2.803-3.861,2.803c-1.342,0-2.307-0.73-2.307-0.73L108.831,33.309z"/>
	</g>
	<g>
		<polygon fill="#2A2B2A" points="126.7,18.927 128.369,18.927 128.369,24.153 134.538,24.153 134.538,18.927 136.206,18.927 
			136.206,30.828 134.538,30.828 134.538,25.603 128.369,25.603 128.369,30.828 126.7,30.828 		"/>
		<polygon fill="#2A2B2A" points="140.793,18.927 147.704,18.927 147.704,20.376 142.462,20.376 142.462,24.101 146.727,24.101 
			146.727,25.552 142.462,25.552 142.462,29.38 147.99,29.38 147.99,30.828 140.793,30.828 		"/>
		<path fill="#2A2B2A" d="M157.702,27.406h-4.484l-1.18,3.422h-1.721l4.281-11.901h1.754l4.282,11.901h-1.736L157.702,27.406z
			 M155.461,20.561c0,0-0.272,1.079-0.475,1.687l-1.33,3.777h3.607l-1.315-3.777c-0.203-0.607-0.455-1.687-0.455-1.687H155.461z"/>
		<polygon fill="#2A2B2A" points="163.735,18.927 165.406,18.927 165.406,29.38 170.732,29.38 170.732,30.828 163.735,30.828 		"/>
		<polygon fill="#2A2B2A" points="175.521,20.376 171.439,20.376 171.439,18.927 181.269,18.927 181.269,20.376 177.188,20.376 
			177.188,30.828 175.521,30.828 		"/>
		<polygon fill="#2A2B2A" points="184.321,18.927 185.99,18.927 185.99,24.153 192.158,24.153 192.158,18.927 193.827,18.927 
			193.827,30.828 192.158,30.828 192.158,25.603 185.99,25.603 185.99,30.828 184.321,30.828 		"/>
	</g>
	<path fill="#A6A8AB" d="M197.227,22.085c-0.913,0-1.624-0.734-1.624-1.625c0-0.89,0.721-1.632,1.633-1.632
		c0.913,0,1.624,0.734,1.624,1.623C198.859,21.341,198.141,22.085,197.227,22.085 M197.235,18.99c-0.833,0-1.459,0.663-1.459,1.47
		c0,0.81,0.622,1.462,1.45,1.462c0.831,0,1.461-0.66,1.461-1.471C198.688,19.644,198.063,18.99,197.235,18.99 M197.596,20.618
		l0.458,0.644h-0.386l-0.414-0.59h-0.356v0.59h-0.324v-1.705h0.758c0.399,0,0.659,0.202,0.659,0.544
		C197.99,20.38,197.828,20.549,197.596,20.618 M197.319,19.85h-0.422v0.54h0.422c0.212,0,0.34-0.104,0.34-0.271
		C197.659,19.944,197.531,19.85,197.319,19.85"/>
</g>
</svg>
